<?xml version="1.0" encoding="UTF-8" standalone="no"?>
<!DOCTYPE svg PUBLIC "-//W3C//DTD SVG 1.1//EN" "http://www.w3.org/Graphics/SVG/1.1/DTD/svg11.dtd">
<svg version="1.1" xmlns="http://www.w3.org/2000/svg" xmlns:xlink="http://www.w3.org/1999/xlink" preserveAspectRatio="xMidYMid meet" viewBox="0 0 640 640" width="640" height="640"><defs><path d="M397.1 180.34C394.33 186.93 391.78 193.64 389.29 200.39C393.85 194.83 398.35 189.24 402.65 183.53C406.99 177.85 411.35 172.18 415.54 166.41C423.97 154.9 432.22 143.28 440.23 131.54C440.59 131 442.44 128.29 445.76 123.43C439.88 119.98 436.62 118.08 435.96 117.69C418.32 107.36 399.1 99.43 379.08 94.19C359.07 88.87 338.31 86.33 317.52 86.41C296.73 86.49 275.92 89.29 255.8 94.69C235.69 100.1 216.34 108.19 198.4 118.57C197.53 119.08 193.15 121.62 185.28 126.17C189.82 133.32 192.35 137.3 192.85 138.09C199.91 149.21 207.04 160.28 214.31 171.26C221.59 182.25 229 193.15 236.54 203.99C251.68 225.61 267.32 246.95 284.31 267.51C274.84 242.59 264.04 218.44 252.77 194.57C247.1 182.65 241.31 170.8 235.39 159.03C231.8 151.88 228.06 144.82 224.38 137.72C254.13 125.19 285.92 118.18 318.11 117.04C336.5 116.34 355.02 117.63 373.31 120.65C388.45 123.22 403.41 127.15 418.12 132.24C413.78 141.64 409.51 151.07 405.38 160.58C402.51 167.1 399.82 173.73 397.1 180.34" id="b1egtxrHZ2"></path><path d="M397.1 180.34C394.33 186.93 391.78 193.64 389.29 200.39C393.85 194.83 398.35 189.24 402.65 183.53C406.99 177.85 411.35 172.18 415.54 166.41C423.97 154.9 432.22 143.28 440.23 131.54C440.59 131 442.44 128.29 445.76 123.43C439.88 119.98 436.62 118.08 435.96 117.69C418.32 107.36 399.1 99.43 379.08 94.19C359.07 88.87 338.31 86.33 317.52 86.41C296.73 86.49 275.92 89.29 255.8 94.69C235.69 100.1 216.34 108.19 198.4 118.57C197.53 119.08 193.15 121.62 185.28 126.17C189.82 133.32 192.35 137.3 192.85 138.09C199.91 149.21 207.04 160.28 214.31 171.26C221.59 182.25 229 193.15 236.54 203.99C251.68 225.61 267.32 246.95 284.31 267.51C274.84 242.59 264.04 218.44 252.77 194.57C247.1 182.65 241.31 170.8 235.39 159.03C231.8 151.88 228.06 144.82 224.38 137.72C254.13 125.19 285.92 118.18 318.11 117.04C336.5 116.34 355.02 117.63 373.31 120.65C388.45 123.22 403.41 127.15 418.12 132.24C413.78 141.64 409.51 151.07 405.38 160.58C402.51 167.1 399.82 173.73 397.1 180.34" id="a1DLhPmMh9"></path><path d="M208.03 493.76C203.64 500.45 199.38 507.21 195.08 513.95C169.35 494.46 147.39 470.43 130.3 443.12C120.51 427.55 112.36 410.87 105.84 393.51C100.5 379.12 96.4 364.19 93.47 348.91C103.77 347.98 114.07 346.96 124.37 345.78C131.46 345 138.55 344.01 145.64 343.07C152.72 342.17 159.8 341.03 166.89 339.81C159.8 338.64 152.71 337.53 145.62 336.67C138.53 335.75 131.43 334.81 124.34 334.06C110.17 332.52 95.98 331.19 81.8 330.12C81.15 330.07 77.88 329.82 72 329.39C71.97 336.2 71.94 339.99 71.94 340.74C71.81 361.19 74.56 381.8 80.03 401.75C85.43 421.73 93.62 440.99 104.07 458.96C114.54 476.92 127.37 493.54 142.11 508.25C156.84 522.97 173.53 535.69 191.49 546.02C192.36 546.53 196.74 549.05 204.63 553.59C208.55 546.08 210.73 541.91 211.17 541.07C217.27 529.41 223.29 517.7 229.16 505.91C235.03 494.11 240.78 482.24 246.39 470.3C257.54 446.36 268.2 422.15 277.52 397.17C260.66 417.83 245.15 439.25 230.12 460.95C222.63 471.82 215.26 482.76 208.03 493.76" id="fnAFINv5W"></path><path d="M208.03 493.76C203.64 500.45 199.38 507.21 195.08 513.95C169.35 494.46 147.39 470.43 130.3 443.12C120.51 427.55 112.36 410.87 105.84 393.51C100.5 379.12 96.4 364.19 93.47 348.91C103.77 347.98 114.07 346.96 124.37 345.78C131.46 345 138.55 344.01 145.64 343.07C152.72 342.17 159.8 341.03 166.89 339.81C159.8 338.64 152.71 337.53 145.62 336.67C138.53 335.75 131.43 334.81 124.34 334.06C110.17 332.52 95.98 331.19 81.8 330.12C81.15 330.07 77.88 329.82 72 329.39C71.97 336.2 71.94 339.99 71.94 340.74C71.81 361.19 74.56 381.8 80.03 401.75C85.43 421.73 93.62 440.99 104.07 458.96C114.54 476.92 127.37 493.54 142.11 508.25C156.84 522.97 173.53 535.69 191.49 546.02C192.36 546.53 196.74 549.05 204.63 553.59C208.55 546.08 210.73 541.91 211.17 541.07C217.27 529.41 223.29 517.7 229.16 505.91C235.03 494.11 240.78 482.24 246.39 470.3C257.54 446.36 268.2 422.15 277.52 397.17C260.66 417.83 245.15 439.25 230.12 460.95C222.63 471.82 215.26 482.76 208.03 493.76" id="h1mn14QdD"></path><path d="M551.01 323.72C537.85 324.28 524.7 324.92 511.55 325.72C498.39 326.53 485.24 327.49 472.09 328.6C445.79 330.91 419.49 333.79 393.2 338.21C419.52 342.49 445.83 345.2 472.13 347.37C485.29 348.42 498.45 349.33 511.6 350.1C519.58 350.55 527.56 350.93 535.54 351.28C531.52 383.29 521.7 414.3 506.6 442.73C498.01 459 487.64 474.39 475.88 488.72C466.08 500.55 455.19 511.55 443.43 521.74C437.47 513.28 431.44 504.87 425.27 496.53C421.05 490.79 416.66 485.14 412.29 479.48C407.96 473.79 403.43 468.22 398.84 462.69C401.37 469.43 403.95 476.12 406.75 482.7C409.51 489.29 412.24 495.91 415.13 502.42C420.89 515.47 426.82 528.42 432.99 541.24C433.28 541.82 434.7 544.78 437.26 550.08C443.17 546.71 446.46 544.84 447.12 544.47C464.89 534.35 481.37 521.67 495.91 506.96C510.52 492.29 523.09 475.57 533.44 457.52C543.74 439.48 551.74 420.05 557.12 399.94C562.48 379.82 565.15 359.01 565.13 338.3C565.13 336.27 565.12 331.21 565.11 323.12C556.65 323.48 551.94 323.68 551.01 323.72Z" id="l3h8VMTQu"></path><path d="M551.01 323.72C537.85 324.28 524.7 324.92 511.55 325.72C498.39 326.53 485.24 327.49 472.09 328.6C445.79 330.91 419.49 333.79 393.2 338.21C419.52 342.49 445.83 345.2 472.13 347.37C485.29 348.42 498.45 349.33 511.6 350.1C519.58 350.55 527.56 350.93 535.54 351.28C531.52 383.29 521.7 414.3 506.6 442.73C498.01 459 487.64 474.39 475.88 488.72C466.08 500.55 455.19 511.55 443.43 521.74C437.47 513.28 431.44 504.87 425.27 496.53C421.05 490.79 416.66 485.14 412.29 479.48C407.96 473.79 403.43 468.22 398.84 462.69C401.37 469.43 403.95 476.12 406.75 482.7C409.51 489.29 412.24 495.91 415.13 502.42C420.89 515.47 426.82 528.42 432.99 541.24C433.28 541.82 434.7 544.78 437.26 550.08C443.17 546.71 446.46 544.84 447.12 544.47C464.89 534.35 481.37 521.67 495.91 506.96C510.52 492.29 523.09 475.57 533.44 457.52C543.74 439.48 551.74 420.05 557.12 399.94C562.48 379.82 565.15 359.01 565.13 338.3C565.13 336.27 565.12 331.21 565.11 323.12C556.65 323.48 551.94 323.68 551.01 323.72Z" id="a1QYtErks"></path><path d="M320 367.89C303.08 367.89 289.31 354.12 289.31 337.19C289.31 320.26 303.08 306.5 320 306.5C336.92 306.5 350.69 320.26 350.69 337.19C350.69 354.12 336.92 367.89 320 367.89M320 275.23C285.84 275.23 258.04 303.03 258.04 337.19C258.04 371.36 285.84 399.16 320 399.16C354.17 399.16 381.96 371.36 381.96 337.19C381.96 303.03 354.17 275.23 320 275.23" id="b20srw6vuu"></path><path d="M320 367.89C303.08 367.89 289.31 354.12 289.31 337.19C289.31 320.26 303.08 306.5 320 306.5C336.92 306.5 350.69 320.26 350.69 337.19C350.69 354.12 336.92 367.89 320 367.89M320 275.23C285.84 275.23 258.04 303.03 258.04 337.19C258.04 371.36 285.84 399.16 320 399.16C354.17 399.16 381.96 371.36 381.96 337.19C381.96 303.03 354.17 275.23 320 275.23" id="f5YP3QePk"></path></defs><g><g><g><use xlink:href="#b1egtxrHZ2" opacity="1" fill="#fff" fill-opacity="1"></use><g><use xlink:href="#b1egtxrHZ2" opacity="1" fill-opacity="0" stroke="#000000" stroke-width="1" stroke-opacity="0"></use></g></g><g><use xlink:href="#a1DLhPmMh9" opacity="1" fill="#fff" fill-opacity="1"></use><g><use xlink:href="#a1DLhPmMh9" opacity="1" fill-opacity="0" stroke="#000000" stroke-width="1" stroke-opacity="0"></use></g></g><g><use xlink:href="#fnAFINv5W" opacity="1" fill="#fff" fill-opacity="1"></use><g><use xlink:href="#fnAFINv5W" opacity="1" fill-opacity="0" stroke="#000000" stroke-width="1" stroke-opacity="0"></use></g></g><g><use xlink:href="#h1mn14QdD" opacity="1" fill="#fff" fill-opacity="1"></use><g><use xlink:href="#h1mn14QdD" opacity="1" fill-opacity="0" stroke="#000000" stroke-width="1" stroke-opacity="0"></use></g></g><g><use xlink:href="#l3h8VMTQu" opacity="1" fill="#fff" fill-opacity="1"></use><g><use xlink:href="#l3h8VMTQu" opacity="1" fill-opacity="0" stroke="#000000" stroke-width="1" stroke-opacity="0"></use></g></g><g><use xlink:href="#a1QYtErks" opacity="1" fill="#fff" fill-opacity="1"></use><g><use xlink:href="#a1QYtErks" opacity="1" fill-opacity="0" stroke="#000000" stroke-width="1" stroke-opacity="0"></use></g></g><g><use xlink:href="#b20srw6vuu" opacity="1" fill="#fff" fill-opacity="1"></use><g><use xlink:href="#b20srw6vuu" opacity="1" fill-opacity="0" stroke="#000000" stroke-width="1" stroke-opacity="0"></use></g></g><g><use xlink:href="#f5YP3QePk" opacity="1" fill="#fff" fill-opacity="1"></use><g><use xlink:href="#f5YP3QePk" opacity="1" fill-opacity="0" stroke="#000000" stroke-width="1" stroke-opacity="0"></use></g></g></g></g></svg>